<svg xmlns="http://www.w3.org/2000/svg" viewBox="0 0 1024 1024" width="200" height="200">
  <path d="M689.236 535.609c46.248-35.272 76.264-90.793 76.264-153.303 0-106.389-86.555-192.946-192.997-192.946-8.944 0-17.692 0.827-26.278 2.007 10.4 18.849 19.644 39.151 27.926 60.558 71.261 0.908 128.979 58.958 128.979 130.381 0 57.037-37.006 105.13-88.099 122.873-0.658 24.981-2.252 49.524-5.334 73.184 121.467 18.051 215.039 122.732 215.039 249.131h62.401c0.001-132.17-82.1-245.418-197.901-291.885z m-153.851 41.545c46.276-35.271 76.264-90.795 76.264-153.303 0-106.387-86.553-192.976-192.976-192.976-106.418 0-192.976 86.557-192.976 192.976 0 62.508 30.017 118.031 76.27 153.303-115.801 46.44-197.901 159.682-197.901 291.856h62.399c0-139.08 113.134-252.184 252.208-252.184 139.079 0 252.212 113.104 252.212 252.184h62.401c0.023-132.174-82.074-245.389-197.901-291.856zM418.702 293.278c72.001 0 130.576 58.574 130.576 130.574 0 71.976-58.575 130.549-130.576 130.549-72.001 0-130.603-58.573-130.603-130.549 0.03-72 58.602-130.574 130.603-130.574z" fill="currentColor"/>
</svg>