<?xml version="1.0" standalone="no"?><!DOCTYPE svg PUBLIC "-//W3C//DTD SVG 1.1//EN" "http://www.w3.org/Graphics/SVG/1.1/DTD/svg11.dtd"><svg t="1749090521242" class="icon" viewBox="0 0 1024 1024" version="1.1" xmlns="http://www.w3.org/2000/svg" p-id="26255" xmlns:xlink="http://www.w3.org/1999/xlink" width="200" height="200"><path d="M301.6 475.4c0 7.4 0.4 14.9 1.2 22.2l14.3-1.6c-0.8-6.8-1.1-13.7-1.1-20.6 0-82.5 55.5-155.5 134.9-177.5l-3.8-13.9c-85.7 23.7-145.5 102.4-145.5 191.4z" fill="" p-id="26256"></path><path d="M776.3 441.7c-2.1 0-3.9 0-5.6 0.1-16.9-128.5-127.8-226.9-259.4-226.9-131.7 0-243.1 99.7-259.6 229.4-0.8 0.1-1.5 0.2-2.2 0.2-102 0-185 83.1-185 185 0 100 81.2 178.6 185 178.6h139.9c53.2 0 96.1-37.2 104.4-87.1h39.4c8.4 48.4 50.5 83.2 104.4 83.2l137.9 0.1c103.6 0 184.8-79.8 184.8-181.6 0.1-101.6-80.8-181-184-181z m-493.9 36.6s0-13.2 0.2-17.6c5-119.9 109-213.5 228.6-213.5 120.3 0 220.7 93.7 228.7 213.3l1.2 17.7 17.5-2.7c7.7-1.2 9.5-1.3 17.6-1.3 85.1 0 151.7 65.2 151.7 148.4 0 83.7-66.9 149.2-152.3 149.2l-137.9-0.1c-35.8 0-63.3-20.5-71.3-50.6H670c8.6 0 15.7-7.1 15.7-15.7s-7.1-15.7-15.7-15.7H565.3c6.2-35.3 37-62.5 74-62.5H807v-32H639.3c-54.8 0-100.2 41.3-106.8 94.5h-38c-6.7-53.1-52-94.5-106.8-94.5H220v32h167.7c37.1 0 67.9 27.1 74.1 62.5H354.1c-8.6 0-15.7 7.1-15.7 15.7s7.1 15.7 15.7 15.7h106.7c-7.9 31.8-35.9 54.1-71.3 54.1h-140C164 775 96.9 711 96.9 629.1c0-84.1 68.4-152.4 152.6-152.4" fill="" p-id="26257"></path></svg>