<svg xmlns="http://www.w3.org/2000/svg" viewBox="0 0 1024 1024" width="200" height="200">
  <path d="M794.96 130.08H267.6a88 88 0 0 0-85.52 68.96 90.4 90.4 0 0 0-1.76 17.52v125.28h702.24V217.68a88 88 0 0 0-87.6-87.6z m14.64 114.88a24 24 0 0 1-24 24H702a24 24 0 0 1-24-24v-2.88a24 24 0 0 1 24-24h83.44a24 24 0 0 1 24 24zM180.08 408v227.2h702.48V408z m629.52 107.84a24 24 0 0 1-24 24H702a24 24 0 0 1-24-24v-2.88a24 24 0 0 1 24-24h83.44a24 24 0 0 1 24 24zM180.08 693.2v125.28a88 88 0 0 0 87.52 88h527.36a88 88 0 0 0 87.6-88V693.2z m629.52 100.88a24 24 0 0 1-24 24H702a24 24 0 0 1-24-24v-2.96a24 24 0 0 1 24-24h83.44a24 24 0 0 1 24 24z" fill="currentColor"/>
</svg>