<svg xmlns="http://www.w3.org/2000/svg" viewBox="0 0 1024 1024" width="200" height="200">
  <path d="M933.5 907.7l-48.5-19.6c-6.9-2.8-14.8-1.7-20.7 2.9-10.2 7.9-21.5 14.5-33.5 19.5-6.8 2.9-11.6 9.1-12.7 16.4l-7.3 51.5h-74l-7.3-51.5c-1-7.3-5.8-13.6-12.7-16.4-11.8-4.9-23.1-11.5-33.6-19.6-5.9-4.5-13.7-5.6-20.6-2.8l-48.5 19.6-36.9-64 41.1-32.3c5.8-4.5 8.8-11.8 7.9-19.1-1-7.9-1.4-13.9-1.4-19.5s0.4-11.6 1.4-19.5c0.9-7.3-2.1-14.5-7.9-19.1l-41.1-32.3 36.9-64 48.5 19.6c6.9 2.8 14.8 1.7 20.7-2.9 10.2-7.9 21.5-14.5 33.5-19.5 6.8-2.9 11.6-9.1 12.7-16.4l7.3-51.5h74.1l7.3 51.5c1 7.3 5.8 13.6 12.7 16.4 11.7 4.9 23 11.5 33.6 19.6 5.9 4.5 13.7 5.6 20.6-2.8l48.5-19.6 36.9 64-41.1 32.3c-5.8 4.5-8.8 11.8-7.9 19.1 1 7.9 1.4 13.9 1.4 19.5s-0.4 11.6-1.4 19.5c-0.9 7.3 2.1 14.5 7.9 19.1l41.1 32.3-36.9 64zM1003 816l-38.7-30.4c0.3-4.5 0.5-8.7 0.5-12.7 0-4.1-0.2-8.2-0.5-12.7l38.9-30.4c12.6-10 15.9-27.3 7.9-41.4l-45.4-78.6c-5.8-9.9-16.4-16.1-27.9-16.1-4.1 0-8.1 0.8-11.9 2.3l-45.7 18.5c-7.1-4.8-14.5-9.1-22-12.8l-6.9-48.7c-3-15.4-16.4-26.5-32-26.5h-90.6c-15.8 0-29.2 11.3-32 27.5l-6.9 48.7c-7.6 3.8-15 8.1-22.1 12.8l-46.1-18.6c-3.7-1.4-7.5-2.1-11.4-2.1-11.5 0-22.1 6.1-27.9 16.1l-45.3 78.5c-8 13.8-4.8 31.2 7.9 41.5l38.7 30.4c-0.3 4-0.5 8.3-0.5 12.7 0 4.4 0.2 8.8 0.5 12.7l-38.8 30.4c-12.6 9.9-15.9 27.3-7.9 41.4l45.3 78.6c5.8 9.9 16.5 16.1 27.9 16.1 4.1 0 8.1-0.8 11.9-2.3l45.7-18.5c7.1 4.8 14.5 9.1 22 12.8l7 49.3c2.7 15.6 16.1 26.7 31.7 26.7h90.6c15.8 0 29.2-11.3 32-27.5l6.9-48.7c7.6-3.8 15-8.1 22.1-12.8l46.1 18.6c3.7 1.4 7.5 2.1 11.4 2.1 11.5 0 22.1-6.1 27.9-16.1l45.3-78.5c8-13.7 4.8-31.1-7.9-41.5zm-229.1-0.3c-23.6 0-42.8-19.2-42.8-42.8s19.2-42.8 42.8-42.8c23.6 0 42.8 19.2 42.8 42.8s-19.2 42.8-42.8 42.8m0-127.6c-46.7 0-84.7 38-84.7 84.7s38 84.7 84.7 84.7 84.7-38 84.7-84.7-38-84.7-84.7-84.7M732.5 177.8H136.1c-11.6 0-21 9.4-21 21s9.4 21 21 21h596.4c11.6 0 21-9.4 21-21s-9.4-21-21-21M753.5 348.9c0-11.6-9.4-21-21-21H136.1c-11.6 0-21 9.4-21 21s9.4 21 21 21h596.4c11.6 0 21-9.4 21-21M136.1 478.2c-11.6 0-21 9.4-21 21s9.4 21 21 21h404.3c11.6 0 21-9.4 21-21s-9.4-21-21-21H136.1zM471.5 956.4H78.4c-16.8 0-30.5-13.7-30.5-30.5V72.4c0-16.8 13.7-30.5 30.5-30.5h711.7c16.8 0 30.5 13.7 30.5 30.5v368.1c0 11.6 9.4 21 21 21s21-9.4 21-21V72.4C862.6 32.5 830.1 0 790.1 0H78.4C38.5 0 6 32.5 6 72.4v853.4c0 39.9 32.5 72.4 72.4 72.4h393.1c11.6 0 21-9.4 21-21s-9.4-21-21-21" fill="currentColor"/>
</svg>